<svg xmlns="http://www.w3.org/2000/svg" width="48" height="15" fill="none" viewBox="0 0 48 15"><path fill="#2394bc" d="M19.367 0 16.99 14.799h3.801L23.167 0zm11.466 6.028c-1.329-.656-2.143-1.099-2.143-1.77.016-.61.688-1.234 2.19-1.234a6.6 6.6 0 0 1 2.831.548l.345.154.517-3.097A9.6 9.6 0 0 0 31.16.02c-3.753 0-6.397 1.952-6.413 4.743-.031 2.06 1.892 3.203 3.332 3.889 1.47.703 1.97 1.16 1.97 1.784-.015.96-1.188 1.402-2.283 1.402-1.516 0-2.33-.228-3.567-.762l-.5-.228-.532 3.217c.893.397 2.535.747 4.24.764 3.989 0 6.585-1.922 6.617-4.896.013-1.632-1-2.882-3.192-3.904M44.318.046h-2.941c-.906 0-1.595.26-1.987 1.19L33.743 14.8h3.99l1.098-2.937h4.463l.57 2.949h3.519zm-4.38 8.853c.077.008 1.53-4.793 1.53-4.793l1.159 4.793zM13.813 0l-3.724 10.054-.406-1.982c-.689-2.288-2.847-4.774-5.257-6.01l3.41 12.722h4.022L17.835.002h-4.022z"/><path fill="#efc75e" d="M8.431 1.91C8.141.78 7.216.02 5.96.003H.06L0 .277c4.6 1.135 8.462 4.625 9.715 7.908z"/></svg>